<svg width="72" height="54" viewBox="0 0 72 54" fill="none" xmlns="http://www.w3.org/2000/svg">
<g clip-path="url(#clip0_672_416)">
<path d="M66.7554 26.5297C70.2525 24.3772 72.0011 20.0939 72.0011 15.83C72.0011 9.74506 68.4847 3.66016 61.4479 3.66016H50.1325V24.6915C49.3169 24.7324 48.5248 24.7776 47.7498 24.8292L41.0054 3.69459H32.4527L24.6259 28.0988C22.6382 28.512 20.5844 28.9597 18.396 29.4354C20.9943 26.6868 23.362 24.0544 23.4111 21.0065C23.4062 20.6477 23.3277 20.2937 23.1805 19.9669H25.0721V14.1252H17.542C18.9682 13.0146 18.9853 12.9349 19.0002 12.8682C19.1966 11.9857 17.9455 10.2702 16.9421 10.0442C16.8644 10.0258 16.7849 10.0164 16.7051 10.0163C16.5542 10.0139 16.4059 10.0558 16.2781 10.1368C15.8008 10.5481 15.362 11.0027 14.9672 11.495V9.74506H26.2826V3.66016H7.72327V28.1418C6.09214 30.9228 5.125 33.4368 5.125 35.0554C5.12512 35.7742 5.27406 36.4852 5.56228 37.1427C5.8505 37.8002 6.27166 38.3898 6.79882 38.8738C6.9617 39.0208 7.13355 39.1574 7.31335 39.2828L5.125 53.9666H12.8515L13.919 40.5096L17.6445 53.9666H23.9128L27.6725 40.5096L28.708 53.9666H36.4665L33.0228 30.7936C34.419 30.6429 35.8239 30.503 37.2308 30.3825L38.1702 30.3029L39.3402 30.2146V53.9666H46.582V29.8595C47.436 29.8422 48.2708 29.8293 49.1056 29.8293C49.4514 29.8293 49.793 29.8293 50.1346 29.8293V54.001H68.6897V47.9161H57.3743V44.7521H67.4792V38.9104H57.3786V35.7808H68.694V33.3851C69.1556 32.7051 69.4344 31.916 69.5031 31.0949C69.627 29.5108 68.6278 27.8534 66.7554 26.5297ZM36.7227 9.57071L38.5502 16.5596H34.9015L36.7227 9.57071ZM17.6381 25.8538C15.0484 29.2568 13.0372 30.2684 11.9249 30.5654C12.9582 28.4023 14.6363 25.8 16.5706 23.3742C18.4451 21.0151 19.8414 19.7409 20.3047 19.6484C20.4315 19.8895 20.5187 20.1497 20.563 20.4189C20.563 21.1873 19.3867 23.555 17.6381 25.8538ZM20.7829 43.0129L19.1966 37.4769C19.7577 37.1387 20.2859 36.7481 20.7744 36.3103C20.8601 36.2193 20.9266 36.1117 20.9699 35.9941C21.0133 35.8764 21.0324 35.7511 21.0263 35.6258C21.0263 34.8122 20.373 34.1191 19.8371 34.1191C19.6236 34.1191 19.3013 34.2978 18.7696 34.5926C18.3427 34.8229 17.8367 35.1071 17.2346 35.3826C15.81 36.0555 14.2582 36.4109 12.685 36.4243C11.3869 36.4243 10.614 35.7592 10.614 34.6443C10.6156 34.572 10.6235 34.5 10.6375 34.429L10.6567 34.2999L11.5342 34.1299C13.4044 33.7639 15.4348 33.383 17.5869 33.0063C19.6108 32.6533 21.7437 32.3046 23.947 31.9753L20.7829 43.0129ZM32.4015 26.605L32.2627 26.6287L33.3067 22.6445H40.1386L40.8517 25.419C37.882 25.744 35.1236 26.1401 32.4015 26.605ZM57.3807 9.74506H60.9675C63.3821 9.74506 64.597 12.7584 64.597 15.83C64.597 18.8434 63.3907 21.8804 60.9675 21.8804H57.3807V9.74506Z" fill="#FF6666"/>
<path d="M64.4078 24.3773C67.9049 22.2249 69.6534 17.9416 69.6534 13.6776C69.6534 7.59271 66.1371 1.50781 59.1002 1.50781H47.7848V22.5391C46.9693 22.58 46.1772 22.6252 45.4022 22.6769L38.6578 1.54225H30.1051L22.2782 25.9464C20.2906 26.3597 18.2367 26.8074 16.0484 27.2831C18.6466 24.5344 21.0143 21.902 21.0634 18.8542C21.0586 18.4953 20.9801 18.1414 20.8329 17.8146H22.7244V11.9729H15.1944C16.6205 10.8622 16.6376 10.7826 16.6526 10.7159C16.849 9.83339 15.5979 8.1179 14.5944 7.8919C14.5168 7.87342 14.4373 7.86403 14.3575 7.86392C14.2066 7.86156 14.0582 7.90344 13.9305 7.98445C13.4532 8.39574 13.0144 8.85038 12.6196 9.34263V7.59271H23.935V1.50781H5.37561V25.9895C3.74449 28.7704 2.77734 31.2844 2.77734 32.9031C2.77747 33.6219 2.9264 34.3328 3.21462 34.9903C3.50284 35.6478 3.924 36.2374 4.45117 36.7215C4.61405 36.8685 4.78589 37.0051 4.9657 37.1304L2.77734 51.8142H10.5038L11.5713 38.3573L15.2969 51.8142H21.5652L25.3248 38.3573L26.3603 51.8142H34.1188L30.6751 28.6413C32.0714 28.4906 33.4762 28.3507 34.8831 28.2301L35.8225 28.1505L36.9925 28.0623V51.8142H44.2343V27.7071C45.0883 27.6899 45.9231 27.677 46.7579 27.677C47.1038 27.677 47.4454 27.677 47.787 27.677V51.8487H66.3421V45.7638H55.0267V42.5997H65.1315V36.758H55.0309V33.6284H66.3463V31.2328C66.808 30.5528 67.0868 29.7637 67.1555 28.9426C67.2793 27.3584 66.2801 25.701 64.4078 24.3773ZM34.375 7.41837L36.2026 14.4073H32.5539L34.375 7.41837ZM15.2905 23.7014C12.7007 27.1044 10.6896 28.1161 9.57725 28.4131C10.6106 26.2499 12.2887 23.6476 14.223 21.2219C16.0975 18.8628 17.4937 17.5886 17.957 17.496C18.0838 17.7371 18.1711 17.9974 18.2154 18.2666C18.2154 19.035 17.039 21.4027 15.2905 23.7014ZM18.4353 40.8606L16.849 35.3245C17.41 34.9864 17.9382 34.5958 18.4267 34.1579C18.5125 34.0669 18.579 33.9594 18.6223 33.8417C18.6656 33.7241 18.6848 33.5988 18.6787 33.4734C18.6787 32.6598 18.0254 31.9668 17.4895 31.9668C17.276 31.9668 16.9536 32.1454 16.422 32.4403C15.995 32.6706 15.489 32.9547 14.8869 33.2302C13.4623 33.9032 11.9105 34.2585 10.3373 34.272C9.03923 34.272 8.26637 33.6069 8.26637 32.4919C8.26797 32.4196 8.27583 32.3476 8.28986 32.2767L8.30907 32.1476L9.18655 31.9775C11.0568 31.6116 13.0872 31.2306 15.2392 30.854C17.2632 30.501 19.396 30.1523 21.5993 29.8229L18.4353 40.8606ZM30.0538 24.4526L29.9151 24.4763L30.9591 20.4922H37.791L38.5041 23.2667C35.5343 23.5917 32.7759 23.9877 30.0538 24.4526ZM55.0331 7.59271H58.6198C61.0345 7.59271 62.2493 10.6061 62.2493 13.6776C62.2493 16.7018 61.043 19.7281 58.6198 19.7281H55.0331V7.59271Z" fill="#33FFCC"/>
<path d="M66.8764 12.1698C66.8764 18.2203 63.3601 24.3052 56.3232 24.3052H45.0078V0H56.3232C63.3601 0 66.8764 6.0849 66.8764 12.1698ZM59.4616 12.1698C59.4616 9.10906 58.2554 6.0849 55.8322 6.0849H52.2454V18.2203H55.8322C58.2554 18.2203 59.4616 15.194 59.4616 12.1698Z" fill="#FBFBFB"/>
<path d="M35.0151 18.9851H28.1831L26.7698 24.3403L19.4062 24.7536L27.3292 0.0351562H35.8819L43.6425 24.3403H36.4007L35.0151 18.9851ZM33.4267 12.9002L31.5991 5.91127L29.7716 12.9002H33.4267Z" fill="#FBFBFB"/>
<path d="M34.2148 26H41.4567V50.3052H34.2148V26Z" fill="#FBFBFB"/>
<path d="M52.2518 32.1193V35.2489H62.3566V41.0906H52.2518V44.2546H63.5672V50.3395H45.0078V26.043H63.5629V32.1279L52.2518 32.1193Z" fill="#FBFBFB"/>
<path d="M21.1528 6.0849V0H2.59766V24.6237L7.30101 24.4171L7.36506 24.204L9.84164 19.8281V16.3089H13.96L15.367 15.4221L15.8836 16.3089H19.9465V10.4672H9.84164V6.0849H21.1528Z" fill="#FBFBFB"/>
<path d="M27.7291 26H19.4859L15.6579 39.3515L13.5742 32.0849L9.60313 33.1439L6.52236 33.1826L3.43091 32.3819L2.76053 31.7793L0 50.3052H7.72649L8.79397 36.8482L12.5195 50.3052H18.7963L22.556 36.8482L23.5915 50.3052H31.35L27.7291 26Z" fill="#FBFBFB"/>
<path d="M61.5215 22.7915C59.615 21.4785 56.1841 20.8414 51.0473 20.8414C49.5379 20.8414 48.0584 20.8952 47.0869 20.9361C44.1257 21.0588 41.4399 21.231 38.9313 21.4484C34.6827 21.8164 30.9465 22.3093 27.2765 22.9551C26.636 23.0627 25.9955 23.1703 25.355 23.293C23.5275 23.6266 21.6956 23.9904 19.8041 24.3843L19.693 24.4058C17.6435 24.8363 15.5256 25.2926 13.2646 25.7855C15.8629 23.0368 18.2306 20.4044 18.2797 17.3566C18.2797 16.6226 17.8762 15.753 17.1716 15.0298C16.5694 14.4181 15.8208 13.9732 14.9982 13.7384C14.5666 13.6123 14.1196 13.5478 13.6703 13.5468C11.3709 13.5468 7.88447 17.0639 5.34385 20.4173L5.22002 20.5831C2.04958 24.7889 0 29.0378 0 31.3969C0 32.7669 0.539843 34.0809 1.50077 35.0496C2.4617 36.0184 3.76499 36.5627 5.12395 36.5627C7.35809 36.5344 9.56272 36.0443 11.6015 35.1227C13.7962 34.1584 15.295 33.0026 15.6473 32.6474C15.733 32.5564 15.7995 32.4489 15.8428 32.3312C15.8861 32.2136 15.9053 32.0883 15.8992 31.9629C15.8992 31.1493 15.2459 30.4563 14.71 30.4563C14.4965 30.4563 14.1741 30.6349 13.6425 30.9298C13.2155 31.1601 12.7095 31.4442 12.1075 31.7197C10.6828 32.3927 9.13102 32.748 7.55782 32.7615C6.25976 32.7615 5.48689 32.0964 5.48689 30.9814C5.48849 30.9091 5.49635 30.8371 5.51038 30.7662L5.52959 30.6371L6.40707 30.467C8.27731 30.1011 10.3077 29.7201 12.4597 29.3434C14.6588 28.9603 16.9838 28.5815 19.3899 28.2263L20.816 28.0111C24.4626 27.4945 28.2735 27.0404 32.1015 26.7196L33.0409 26.64C35.2485 26.4614 37.4582 26.3279 39.6423 26.2483C41.1005 26.1945 42.548 26.1665 43.9763 26.1665C45.6843 26.1665 47.3431 26.2074 48.8995 26.2892C49.5272 26.3236 50.1314 26.3516 50.7121 26.3774C56.3165 26.6379 59.7004 26.7928 60.7593 30.7167C60.7957 30.8695 60.8844 31.0044 61.0098 31.0977C61.1351 31.191 61.2891 31.2367 61.4447 31.2268C62.4993 31.2268 64.1924 29.634 64.3696 27.4321C64.5041 25.8307 63.4644 24.1281 61.5215 22.7915ZM6.79991 26.9069C7.83324 24.7545 9.51133 22.1414 11.4456 19.7157C13.3201 17.3566 14.7164 16.0824 15.1797 15.9898C15.3065 16.2309 15.3937 16.4912 15.438 16.7604C15.438 17.5288 14.2617 19.8965 12.5131 22.1952C9.92338 25.5982 7.91223 26.6099 6.79991 26.9069ZM6.71451 12.0552C6.8789 11.3104 10.4956 6.88936 11.1531 6.4761C11.2809 6.39508 11.4292 6.35321 11.5801 6.35556C11.6599 6.35567 11.7394 6.36506 11.8171 6.38354C12.8205 6.60955 14.0716 8.32073 13.8752 9.20752C13.8581 9.28716 13.8368 9.38618 11.3944 11.2566C10.1369 12.2166 8.81746 13.1938 8.47159 13.4435C8.35052 13.5257 8.20766 13.5692 8.06168 13.5683C7.97538 13.5668 7.8895 13.556 7.80548 13.536C7.18207 13.3983 6.56719 12.7203 6.71451 12.0552Z" fill="#FF0066"/>
</g>
<defs>
<clipPath id="clip0_672_416">
<rect width="72" height="54" fill="white"/>
</clipPath>
</defs>
</svg>
