<svg width="180" height="135" viewBox="0 0 180 135" fill="none" xmlns="http://www.w3.org/2000/svg">
<g clip-path="url(#clip0_678_317)">
<path d="M166.885 66.3222C175.627 60.9411 179.999 50.2328 179.999 39.5729C179.999 24.3607 171.208 9.14844 153.616 9.14844H125.327V61.7268C123.288 61.829 121.308 61.942 119.371 62.0711L102.51 9.23453H81.1279L61.5608 70.245C56.5917 71.2781 51.457 72.3974 45.9862 73.5866C52.4818 66.715 58.4011 60.134 58.5238 52.5144C58.5116 51.6172 58.3154 50.7323 57.9474 49.9153H62.6763V35.3111H43.8512C47.4166 32.5345 47.4593 32.3354 47.4966 32.1686C47.9877 29.9624 44.86 25.6737 42.3514 25.1087C42.1572 25.0624 41.9584 25.039 41.7589 25.0387C41.3816 25.0328 41.0108 25.1375 40.6914 25.34C39.4981 26.3683 38.4011 27.5048 37.4142 28.7355V24.3607H65.7027V9.14844H19.3043V70.3526C15.2265 77.3049 12.8086 83.59 12.8086 87.6366C12.8089 89.4337 13.1812 91.2109 13.9018 92.8547C14.6223 94.4984 15.6752 95.9725 16.9932 97.1826C17.4003 97.5501 17.83 97.8915 18.2795 98.205L12.8086 134.915H32.1248L34.7935 101.272L44.1074 134.915H59.7781L69.1774 101.272L71.766 134.915H91.1623L82.553 76.9821C86.0437 76.6054 89.5557 76.2556 93.0731 75.9543L95.4216 75.7552L98.3465 75.5346V134.915H116.451V74.6467C118.586 74.6036 120.673 74.5713 122.76 74.5713C123.625 74.5713 124.479 74.5713 125.333 74.5713V135.001H171.72V119.788H143.432V111.878H168.694V97.274H143.443V89.45H171.731V83.4609C172.885 81.7609 173.582 79.7882 173.754 77.7354C174.063 73.775 171.566 69.6315 166.885 66.3222ZM91.8028 23.9248L96.3716 41.3971H87.2499L91.8028 23.9248ZM44.0914 64.6325C37.617 73.14 32.5892 75.6691 29.8084 76.4117C32.3917 71.0037 36.5869 64.498 41.4226 58.4335C46.1089 52.5359 49.5996 49.3503 50.7578 49.1189C51.0748 49.7217 51.2929 50.3723 51.4037 51.0454C51.4037 52.9664 48.4627 58.8856 44.0914 64.6325ZM51.9534 107.53L47.9877 93.6902C49.3902 92.8448 50.7108 91.8683 51.9321 90.7737C52.1464 90.5463 52.3127 90.2773 52.421 89.9832C52.5292 89.6891 52.5772 89.3759 52.5619 89.0625C52.5619 87.0285 50.9286 85.2958 49.5889 85.2958C49.0552 85.2958 48.2492 85.7424 46.9202 86.4796C45.8527 87.0554 44.5877 87.7657 43.0826 88.4545C39.521 90.1369 35.6415 91.0253 31.7085 91.0589C28.4633 91.0589 26.5312 89.3962 26.5312 86.6088C26.5352 86.428 26.5548 86.248 26.5899 86.0707L26.6379 85.7478L28.8316 85.3227C33.5072 84.4079 38.5831 83.4555 43.9633 82.5138C49.0232 81.6313 54.3553 80.7596 59.8635 79.9363L51.9534 107.53ZM80.9998 66.5105L80.6529 66.5697L83.2629 56.6094H100.343L102.125 63.5456C94.701 64.3581 87.805 65.3482 80.9998 66.5105ZM143.448 24.3607H152.415C158.451 24.3607 161.488 31.8942 161.488 39.5729C161.488 47.1064 158.473 54.6991 152.415 54.6991H143.448V24.3607Z" fill="#FF6666"/>
<path d="M161.014 60.9394C169.756 55.5583 174.128 44.85 174.128 34.1901C174.128 18.9779 165.337 3.76562 147.745 3.76562H119.456V56.3439C117.417 56.4462 115.437 56.5592 113.5 56.6883L96.6386 3.85172H75.2568L55.6897 64.8622C50.7206 65.8953 45.5859 67.0146 40.1151 68.2038C46.6107 61.3322 52.53 54.7512 52.6527 47.1316C52.6406 46.2344 52.4443 45.3495 52.0763 44.5325H56.8053V29.9283H37.9801C41.5455 27.1517 41.5882 26.9526 41.6256 26.7858C42.1166 24.5796 38.9889 20.2909 36.4803 19.7258C36.2861 19.6796 36.0873 19.6562 35.8878 19.6559C35.5105 19.65 35.1397 19.7547 34.8203 19.9572C33.627 20.9854 32.53 22.122 31.5431 23.3527V18.9779H59.8316V3.76562H13.4332V64.9698C9.35536 71.9221 6.9375 78.2072 6.9375 82.2537C6.93781 84.0509 7.31014 85.8281 8.03069 87.4719C8.75124 89.1156 9.80415 90.5897 11.1221 91.7997C11.5293 92.1673 11.9589 92.5087 12.4084 92.8221L6.9375 129.532H26.2537L28.9224 95.8893L38.2363 129.532H53.907L63.3063 95.8893L65.8949 129.532H85.2912L76.6819 71.5992C80.1726 71.2226 83.6846 70.8728 87.202 70.5715L89.5505 70.3724L92.4754 70.1517V129.532H110.58V69.2639C112.715 69.2208 114.802 69.1885 116.889 69.1885C117.754 69.1885 118.608 69.1885 119.462 69.1885V129.618H165.849V114.406H137.561V106.495H162.823V91.8912H137.571V84.0672H165.86V78.078C167.014 76.3781 167.711 74.4054 167.883 72.3526C168.192 68.3921 165.694 64.2487 161.014 60.9394ZM85.9317 18.542L90.5005 36.0143H81.3788L85.9317 18.542ZM38.2203 59.2497C31.7459 67.7572 26.7181 70.2863 23.9373 71.0289C26.5206 65.6209 30.7158 59.1152 35.5515 53.0507C40.2378 47.1531 43.7285 43.9675 44.8867 43.7361C45.2037 44.3389 45.4218 44.9895 45.5326 45.6625C45.5326 47.5836 42.5916 53.5027 38.2203 59.2497ZM46.0823 102.148L42.1166 88.3074C43.5191 87.462 44.8397 86.4855 46.061 85.3909C46.2753 85.1635 46.4416 84.8945 46.5499 84.6004C46.6581 84.3063 46.7061 83.9931 46.6908 83.6797C46.6908 81.6457 45.0575 79.913 43.7178 79.913C43.1841 79.913 42.3781 80.3596 41.0491 81.0968C39.9816 81.6726 38.7166 82.3829 37.2115 83.0717C33.6499 84.7541 29.7704 85.6424 25.8374 85.6761C22.5922 85.6761 20.6601 84.0133 20.6601 81.226C20.6641 81.0452 20.6837 80.8652 20.7188 80.6879L20.7668 80.365L22.9605 79.9399C27.6361 79.0251 32.712 78.0727 38.0922 77.131C43.1521 76.2485 48.4842 75.3768 53.9924 74.5535L46.0823 102.148ZM75.1287 61.1277L74.7818 61.1869L77.3918 51.2266H94.4716L96.2543 58.1627C88.8299 58.9753 81.9339 59.9654 75.1287 61.1277ZM137.577 18.9779H146.544C152.58 18.9779 155.617 26.5114 155.617 34.1901C155.617 41.7505 152.602 49.3163 146.544 49.3163H137.577V18.9779Z" fill="#003399"/>
<path d="M167.191 30.4245C167.191 45.5507 158.4 60.7629 140.808 60.7629H112.52V0H140.808C158.4 0 167.191 15.2123 167.191 30.4245ZM148.654 30.4245C148.654 22.7726 145.638 15.2123 139.58 15.2123H130.613V45.5507H139.58C145.638 45.5507 148.654 37.9849 148.654 30.4245Z" fill="#FBFBFB"/>
<path d="M87.5338 47.4608H70.454L66.9206 60.8488L48.5117 61.882L68.319 0.0859375H89.7008L109.102 60.8488H90.9978L87.5338 47.4608ZM83.5627 32.2485L78.9939 14.7762L74.425 32.2485H83.5627Z" fill="#FBFBFB"/>
<path d="M85.5391 65.0039H103.644V125.767H85.5391V65.0039Z" fill="#FBFBFB"/>
<path d="M130.633 80.3001V88.1242H155.896V102.728H130.633V110.639H158.922V125.851H112.523V65.1094H158.911V80.3216L130.633 80.3001Z" fill="#FBFBFB"/>
<path d="M52.8838 15.2123V0H6.49609V61.5593L18.2545 61.0427L18.4146 60.51L24.606 49.5703V40.7723H34.902L38.4194 38.5553L39.711 40.7723H49.8682V26.1681H24.606V15.2123H52.8838Z" fill="#FBFBFB"/>
<path d="M69.3227 65.0039H48.7149L39.1448 98.3826L33.9355 80.2162L24.0078 82.8636L16.3059 82.9605L8.57727 80.9587L6.90132 79.452L0 125.767H19.3162L21.9849 92.1244L31.2988 125.767H46.9909L56.3901 92.1244L58.9788 125.767H78.375L69.3227 65.0039Z" fill="#FBFBFB"/>
<path d="M153.804 56.9728C149.037 53.6904 140.46 52.0976 127.618 52.0976C123.845 52.0976 120.146 52.2321 117.717 52.3343C110.314 52.6411 103.6 53.0715 97.3283 53.615C86.7068 54.5352 77.3663 55.7675 68.1912 57.3818C66.59 57.6508 64.9887 57.9199 63.3875 58.2266C58.8186 59.0607 54.2391 59.9701 49.5101 60.9548L49.2326 61.0086C44.1086 62.0848 38.8139 63.2256 33.1615 64.4579C39.6572 57.5863 45.5764 51.0052 45.6992 43.3856C45.6992 41.5507 44.6904 39.3768 42.9291 37.5687C41.4235 36.0393 39.552 34.9272 37.4956 34.3401C36.4165 34.0249 35.299 33.8637 34.1757 33.8612C28.4272 33.8612 19.7112 42.6538 13.3596 51.0375L13.0501 51.4519C5.12395 61.9664 0 72.5886 0 78.4863C0 81.9114 1.34961 85.1963 3.75192 87.6183C6.15424 90.0402 9.41248 91.4008 12.8099 91.4008C18.3952 91.3302 23.9068 90.105 29.0037 87.8009C34.4906 85.3902 38.2375 82.5006 39.1181 81.6127C39.3325 81.3852 39.4988 81.1163 39.607 80.8222C39.7153 80.5281 39.7632 80.2149 39.748 79.9015C39.748 77.8675 38.1147 76.1348 36.775 76.1348C36.2413 76.1348 35.4353 76.5814 34.1063 77.3186C33.0388 77.8944 31.7738 78.6047 30.2687 79.2934C26.7071 80.9759 22.8276 81.8642 18.8946 81.8979C15.6494 81.8979 13.7172 80.2351 13.7172 77.4477C13.7212 77.267 13.7409 77.0869 13.7759 76.9096L13.824 76.5868L16.0177 76.1617C20.6933 75.2469 25.7692 74.2944 31.1493 73.3528C36.6469 72.3949 42.4594 71.4479 48.4747 70.56L52.0401 70.0219C61.1564 68.7304 70.6838 67.595 80.2538 66.7932L82.6023 66.5941C88.1212 66.1475 93.6455 65.8139 99.1057 65.6148C102.751 65.4803 106.37 65.4103 109.941 65.4103C114.211 65.4103 118.358 65.5126 122.249 65.717C123.818 65.8031 125.329 65.8731 126.78 65.9377C140.791 66.5888 149.251 66.9762 151.898 76.7859C151.989 77.1678 152.211 77.5051 152.524 77.7384C152.838 77.9717 153.223 78.086 153.612 78.0612C156.248 78.0612 160.481 74.0792 160.924 68.5744C161.26 64.5709 158.661 60.3145 153.804 56.9728ZM16.9998 67.2614C19.5831 61.8803 23.7783 55.3477 28.614 49.2833C33.3003 43.3856 36.791 40.2001 37.9492 39.9687C38.2662 40.5715 38.4843 41.222 38.5951 41.8951C38.5951 43.8161 35.6541 49.7353 31.2828 55.4823C24.8084 63.9897 19.7806 66.5188 16.9998 67.2614ZM16.7863 30.1321C17.1972 28.2702 26.2389 17.2176 27.8828 16.1844C28.2022 15.9818 28.573 15.8772 28.9503 15.883C29.1498 15.8833 29.3486 15.9068 29.5428 15.953C32.0514 16.518 35.1791 20.796 34.6881 23.013C34.6454 23.2121 34.592 23.4596 28.4859 28.1357C25.3422 30.5357 22.0436 32.9787 21.179 33.6029C20.8763 33.8084 20.5191 33.9172 20.1542 33.915C19.9385 33.9111 19.7237 33.8841 19.5137 33.8343C17.9552 33.4899 16.418 31.7948 16.7863 30.1321Z" fill="#FF0066"/>
</g>
<defs>
<clipPath id="clip0_678_317">
<rect width="180" height="135" fill="white"/>
</clipPath>
</defs>
</svg>
